# xmcd
#
# Track frame offsets:
# 150
# 12356
# 25255
# 36730
# 50347
# 64265
# 75213
# 87142
# 101237
# 113746
# 126432
# 140605
# 154163
#
# Disc length: 2224 seconds
#
#
# Revision: 0
# Processed by: cddbd v1.5.2PL0 Copyright (c) Steve Scherf et al.
# Submitted via: FreeRIP 2.951 
#
DISCID=ad08ae0d
DTITLE=Amalia Mendoza - Amalia Mendoza
DYEAR=1900
DGENRE=Ranchera
TTITLE0=Amarga Navidad
TTITLE1=Puñalada Trapera
TTITLE2=Tu y La Mentira
TTITLE3=Corazoncito Tirano
TTITLE4=Gritenme Piedras del Campo
TTITLE5=Que si te quiero, juralo
TTITLE6=La Ultima Cancion
TTITLE7=Echame a mi la Culpa
TTITLE8=Paloma Herida
TTITLE9=La Flor de la Canela
TTITLE10=Pa que sientas lo que siento
TTITLE11=Un Mundo Raro
TTITLE12=Paloma Negra
EXTD=
EXTT0=
EXTT1=
EXTT2=
EXTT3=
EXTT4=
EXTT5=
EXTT6=
EXTT7=
EXTT8=
EXTT9=
EXTT10=
EXTT11=
EXTT12=
PLAYORDER=
